<svg xmlns="http://www.w3.org/2000/svg" viewBox="0 0 80.479 61.201"><defs><style>.cls-1{fill:#ed1c29}</style></defs><g id="logo_tuya" data-name="logo tuya" transform="translate(-272.622 -59.47)"><path id="Path_22" data-name="Path 22" class="cls-1" d="M54.9 17.833c-.3.931-.582 1.862-.892 2.78a43.2 43.2 0 0 1-5.47 11.419 21.888 21.888 0 0 1-2.664 3.22 2.775 2.775 0 0 1-2.664.595 19.7 19.7 0 0 1-2.7-.815 2.756 2.756 0 0 1-1.733-2.5 16.187 16.187 0 0 1 .595-6c.918-3.828 1.862-7.643 2.78-11.457a1.129 1.129 0 0 1 1.008-1.005 18.542 18.542 0 0 1 2.767-.4c.091-.013 1.035-.052 1.254-.026 1.1.168 1.125.453.866 1.526-1 4.073-2.069 8.121-2.974 12.207a56.642 56.642 0 0 0-.737 5.742 2.072 2.072 0 0 0 .026.543.262.262 0 0 0 .388.194 5.216 5.216 0 0 0 1.733-1.8c1.035-1.6 2.017-2.935 2.9-4.63a52.323 52.323 0 0 0 4.707-12.88 11.415 11.415 0 0 0 .207-1.332 2.346 2.346 0 0 0-.853-2.483 3.584 3.584 0 0 1 2.754-.582 4.112 4.112 0 0 1 2.9 2.173 11.176 11.176 0 0 1 1.228 5.548 38.1 38.1 0 0 1-1.772 11.5C54.618 42.571 46.1 51.856 33.966 58a30 30 0 0 1-11.108 3.129c-7.384.621-13.216-2.716-16.63-9.414a25.7 25.7 0 0 1-2.845-11.55c-.026-3.492-.078-6.983.181-10.462.31-4.151.905-8.289 1.435-12.427.207-1.655.556-3.3.866-5.056-.466.129-.879.22-1.267.349-1.151.362-2.289.724-3.44 1.112a.643.643 0 0 1-.905-.44 1.712 1.712 0 0 1 .932-2.441c1.642-.7 3.272-1.422 4.927-2.108a1.142 1.142 0 0 0 .724-.879c.466-1.785.957-3.569 1.422-5.354A1.14 1.14 0 0 1 9.267 1.5C11.245 1.073 13.2.556 15.151.078A5.246 5.246 0 0 1 15.707 0c-.595 1.823-1.164 3.595-1.785 5.522 1.487-.556 2.793-.97 4.048-1.526a3.087 3.087 0 0 1 3.336.388 9.393 9.393 0 0 1 2.043 2c.634.892.349 1.513-.711 1.759-1.435.323-2.923.491-4.371.763-1.733.336-3.453.7-5.173 1.1a.818.818 0 0 0-.491.556c-.7 3.3-1.448 6.6-2 9.919-.78 4.645-1.427 9.313-2.073 13.969a45.041 45.041 0 0 0-.543 11.263 20.753 20.753 0 0 0 3 9.5 12.366 12.366 0 0 0 9.466 5.574c5.677.569 10.5-1.474 14.781-5.069a54.092 54.092 0 0 0 10.978-13.134 61.893 61.893 0 0 0 6.233-12.143 44.761 44.761 0 0 0 2.6-12.13c.013-.142 0-.3 0-.44-.039-.013-.091-.025-.145-.038z" transform="translate(272.569 59.47)"/><path id="Path_23" data-name="Path 23" class="cls-1" d="M137.365 143.646a2.054 2.054 0 0 1-3.142-.634 6.081 6.081 0 0 1-.414-2.586c-.026-2.858.116-5.716.194-8.587v-.608a4.551 4.551 0 0 0-.272.478q-3.724 8.709-7.449 17.432a26.08 26.08 0 0 1-1.345 2.418 1.644 1.644 0 0 1-1.694.828 9.052 9.052 0 0 1-4.176-1.387 3.324 3.324 0 0 1-1.591-2.858 39.874 39.874 0 0 1 .685-8.03 102.12 102.12 0 0 1 2.935-12.738 1.3 1.3 0 0 1 1.151-1.06 13.709 13.709 0 0 1 5.173-.362 12.364 12.364 0 0 1 1.552.491c-2.457 7.345-4.6 14.664-5.328 22.32 0 .142.091.22.181.065.129-.284.259-.556.375-.841q4.714-10.785 9.44-21.557c.375-.866.866-1.681 1.293-2.522a.876.876 0 0 1 .931-.53 11.469 11.469 0 0 1 4.384 1.19c.466.233.608.491.31 1.06a35.615 35.615 0 0 0-4.035 13.035 6.682 6.682 0 0 0 .842 4.983z" transform="translate(170.346 -47.955)"/><path id="Path_24" data-name="Path 24" class="cls-1" d="M490.764 64.149a32.365 32.365 0 0 1-2.25 6.983 4.857 4.857 0 0 1-.31.569c-.944 1.578-1.9 1.759-3.375.647a4.917 4.917 0 0 1-2.03-4.242 35.91 35.91 0 0 1 1.487-9.66 37.471 37.471 0 0 1 1.513-4.177c.983-2.328 2.741-2.858 5.3-2.147a10.112 10.112 0 0 1 3.685 2.819 4.7 4.7 0 0 1 1.009 3.711c-.129 1.332-.129 2.664-.129 4.009a2.173 2.173 0 0 0 .233 1 .507.507 0 0 0 .634.246 1.357 1.357 0 0 0 .517-.491 22.727 22.727 0 0 0 1.474-3.3c.466-1.4.724-2.871 1.073-4.306.039-.142.091-.284.155-.478.362.078.711.142 1.1.22a37.893 37.893 0 0 1-2.069 7.41 6.18 6.18 0 0 1-1.823 2.483 2.9 2.9 0 0 1-4.513-1.526 17.814 17.814 0 0 1-.466-2.341 7.345 7.345 0 0 1-.1-.8c-.039-.621-.026-1.022-.052-1.177-.106-.043-.765 3.242-1.063 4.548zM487.1 66.1c.013.3.026.815.078 1.332a1.585 1.585 0 0 0 .181.608c.1.168.272.388.427.4s.375-.194.466-.349a5.249 5.249 0 0 0 .453-1.073c1.009-3.582 1.991-7.164 2.987-10.733a1.294 1.294 0 0 0-.517-1.358.943.943 0 0 0-1.616.22 6.459 6.459 0 0 0-.608 1.28A33.691 33.691 0 0 0 487.1 66.1z" transform="translate(-147.75 14.343)"/></g></svg>